solid OpenSCAD_Model
  facet normal -1 -0 -0
    outer loop
      vertex -9.5 -33 -5
      vertex -9.5 -33 5
      vertex -9.5 33 -5
    endloop
  endfacet
  facet normal -1 0 0
    outer loop
      vertex -9.5 33 -5
      vertex -9.5 -33 5
      vertex -9.5 33 5
    endloop
  endfacet
  facet normal 0 -1 0
    outer loop
      vertex -9.5 -33 5
      vertex -9.5 -33 -5
      vertex 9.5 -33 -5
    endloop
  endfacet
  facet normal 0 -1 0
    outer loop
      vertex 9.5 -33 5
      vertex -9.5 -33 5
      vertex 9.5 -33 -5
    endloop
  endfacet
  facet normal 0 0 -1
    outer loop
      vertex 4 6.9282 -5
      vertex 6.5723 17.3868 -5
      vertex 6.7862 17.8067 -5
    endloop
  endfacet
  facet normal 0 -0 -1
    outer loop
      vertex 2.76093 27.9733 -5
      vertex -9.5 33 -5
      vertex 9.5 33 -5
    endloop
  endfacet
  facet normal 0 -0 -1
    outer loop
      vertex -9.5 -33 -5
      vertex -9.5 33 -5
      vertex -8 0 -5
    endloop
  endfacet
  facet normal 0 0 -1
    outer loop
      vertex -3.75 -14.5048 -5
      vertex -8 0 -5
      vertex -4 -6.9282 -5
    endloop
  endfacet
  facet normal 0 -0 -1
    outer loop
      vertex 7.5 -21 -5
      vertex 4 -6.9282 -5
      vertex 8 0 -5
    endloop
  endfacet
  facet normal 0 0 -1
    outer loop
      vertex 9.5 -33 -5
      vertex 8 0 -5
      vertex 9.5 33 -5
    endloop
  endfacet
  facet normal -0 0 -1
    outer loop
      vertex 7.13292 23.3176 -5
      vertex 9.5 33 -5
      vertex 7.26437 22.8652 -5
    endloop
  endfacet
  facet normal -0 0 -1
    outer loop
      vertex 7.4852 20.5291 -5
      vertex 9.5 33 -5
      vertex 7.44086 20.06 -5
    endloop
  endfacet
  facet normal 0 0 -1
    outer loop
      vertex -9.5 -33 -5
      vertex -8 0 -5
      vertex -7.5 -21 -5
    endloop
  endfacet
  facet normal 0 0 -1
    outer loop
      vertex -9.5 -33 -5
      vertex -7.5 -21 -5
      vertex -3.75 -27.4952 -5
    endloop
  endfacet
  facet normal -0 0 -1
    outer loop
      vertex -9.5 -33 -5
      vertex -3.75 -27.4952 -5
      vertex 9.5 -33 -5
    endloop
  endfacet
  facet normal 0 0 -1
    outer loop
      vertex -6.5723 17.3868 -5
      vertex -4 6.9282 -5
      vertex -6.7862 17.8067 -5
    endloop
  endfacet
  facet normal 0 0 -1
    outer loop
      vertex 7.5 -21 -5
      vertex 9.5 -33 -5
      vertex 3.75 -27.4952 -5
    endloop
  endfacet
  facet normal -0 0 -1
    outer loop
      vertex 3.75 -14.5048 -5
      vertex 4 -6.9282 -5
      vertex 7.5 -21 -5
    endloop
  endfacet
  facet normal 0 0 -1
    outer loop
      vertex 9.5 -33 -5
      vertex 7.5 -21 -5
      vertex 8 0 -5
    endloop
  endfacet
  facet normal 0 0 -1
    outer loop
      vertex 4 6.9282 -5
      vertex 7.13292 18.6824 -5
      vertex 7.26437 19.1348 -5
    endloop
  endfacet
  facet normal 0 -0 -1
    outer loop
      vertex -7.5 -21 -5
      vertex -8 0 -5
      vertex -3.75 -14.5048 -5
    endloop
  endfacet
  facet normal 0 0 -1
    outer loop
      vertex -7.4852 20.5291 -5
      vertex -9.5 33 -5
      vertex -7.5 21 -5
    endloop
  endfacet
  facet normal 0 0 -1
    outer loop
      vertex -7.44086 20.06 -5
      vertex -9.5 33 -5
      vertex -7.4852 20.5291 -5
    endloop
  endfacet
  facet normal 0 0 -1
    outer loop
      vertex -4 6.9282 -5
      vertex -5.46726 15.8659 -5
      vertex -5.1341 15.5327 -5
    endloop
  endfacet
  facet normal 0 0 -1
    outer loop
      vertex 4 -6.9282 -5
      vertex 3.75 -14.5048 -5
      vertex -4 -6.9282 -5
    endloop
  endfacet
  facet normal 0 0 -1
    outer loop
      vertex -4 6.9282 -5
      vertex -5.77885 16.2193 -5
      vertex -5.46726 15.8659 -5
    endloop
  endfacet
  facet normal 0 0 -1
    outer loop
      vertex -4 6.9282 -5
      vertex -5.1341 15.5327 -5
      vertex -4.78068 15.2212 -5
    endloop
  endfacet
  facet normal 0 -0 -1
    outer loop
      vertex -7.13292 23.3176 -5
      vertex -9.5 33 -5
      vertex -6.97332 23.7609 -5
    endloop
  endfacet
  facet normal 0 0 -1
    outer loop
      vertex -7.26437 19.1348 -5
      vertex -7.13292 18.6824 -5
      vertex -4 6.9282 -5
    endloop
  endfacet
  facet normal 0 0 -1
    outer loop
      vertex -7.13292 18.6824 -5
      vertex -6.97332 18.2391 -5
      vertex -4 6.9282 -5
    endloop
  endfacet
  facet normal 0 0 -1
    outer loop
      vertex -6.97332 18.2391 -5
      vertex -6.7862 17.8067 -5
      vertex -4 6.9282 -5
    endloop
  endfacet
  facet normal 0 0 -1
    outer loop
      vertex -5.77885 16.2193 -5
      vertex -4 6.9282 -5
      vertex -6.06763 16.5916 -5
    endloop
  endfacet
  facet normal 0 0 -1
    outer loop
      vertex -6.5723 17.3868 -5
      vertex -6.33246 16.9813 -5
      vertex -4 6.9282 -5
    endloop
  endfacet
  facet normal 0 -0 -1
    outer loop
      vertex -7.44086 21.94 -5
      vertex -9.5 33 -5
      vertex -7.36715 22.4054 -5
    endloop
  endfacet
  facet normal 0 0 -1
    outer loop
      vertex -6.33246 16.9813 -5
      vertex -6.06763 16.5916 -5
      vertex -4 6.9282 -5
    endloop
  endfacet
  facet normal 0 -0 -1
    outer loop
      vertex -7.36715 22.4054 -5
      vertex -9.5 33 -5
      vertex -7.26437 22.8652 -5
    endloop
  endfacet
  facet normal 0 -0 -1
    outer loop
      vertex -7.26437 22.8652 -5
      vertex -9.5 33 -5
      vertex -7.13292 23.3176 -5
    endloop
  endfacet
  facet normal -0 0 -1
    outer loop
      vertex 4 6.9282 -5
      vertex 7.26437 19.1348 -5
      vertex 8 0 -5
    endloop
  endfacet
  facet normal -0 0 -1
    outer loop
      vertex 7.26437 19.1348 -5
      vertex 7.36715 19.5946 -5
      vertex 8 0 -5
    endloop
  endfacet
  facet normal 0 0 -1
    outer loop
      vertex 4 6.9282 -5
      vertex 6.97332 18.2391 -5
      vertex 7.13292 18.6824 -5
    endloop
  endfacet
  facet normal 0 0 -1
    outer loop
      vertex 4 6.9282 -5
      vertex 6.7862 17.8067 -5
      vertex 6.97332 18.2391 -5
    endloop
  endfacet
  facet normal 0 0 -1
    outer loop
      vertex 4 6.9282 -5
      vertex 6.33246 16.9813 -5
      vertex 6.5723 17.3868 -5
    endloop
  endfacet
  facet normal 0 0 -1
    outer loop
      vertex 4 6.9282 -5
      vertex 6.06763 16.5916 -5
      vertex 6.33246 16.9813 -5
    endloop
  endfacet
  facet normal 0 -0 -1
    outer loop
      vertex -6.97332 23.7609 -5
      vertex -9.5 33 -5
      vertex -6.7862 24.1933 -5
    endloop
  endfacet
  facet normal 0 -0 -1
    outer loop
      vertex -6.7862 24.1933 -5
      vertex -9.5 33 -5
      vertex -6.5723 24.6132 -5
    endloop
  endfacet
  facet normal 0 0 -1
    outer loop
      vertex -2.76093 14.0267 -5
      vertex -2.31763 13.8671 -5
      vertex 4 6.9282 -5
    endloop
  endfacet
  facet normal 0 0 -1
    outer loop
      vertex -2.31763 13.8671 -5
      vertex -1.86517 13.7356 -5
      vertex 4 6.9282 -5
    endloop
  endfacet
  facet normal 0 -0 -1
    outer loop
      vertex -6.5723 24.6132 -5
      vertex -9.5 33 -5
      vertex -6.33246 25.0187 -5
    endloop
  endfacet
  facet normal 0 0 -1
    outer loop
      vertex -1.86517 13.7356 -5
      vertex -1.40536 13.6328 -5
      vertex 4 6.9282 -5
    endloop
  endfacet
  facet normal 0 0 -1
    outer loop
      vertex -1.40536 13.6328 -5
      vertex -0.939999 13.5591 -5
      vertex 4 6.9282 -5
    endloop
  endfacet
  facet normal 0 -0 -1
    outer loop
      vertex -6.33246 25.0187 -5
      vertex -9.5 33 -5
      vertex -6.06763 25.4084 -5
    endloop
  endfacet
  facet normal 0 0 -1
    outer loop
      vertex -0.939999 13.5591 -5
      vertex -0.470929 13.5148 -5
      vertex 4 6.9282 -5
    endloop
  endfacet
  facet normal 0 0 -1
    outer loop
      vertex -0.470929 13.5148 -5
      vertex 0 13.5 -5
      vertex 4 6.9282 -5
    endloop
  endfacet
  facet normal -0 0 -1
    outer loop
      vertex 0 13.5 -5
      vertex 0.470929 13.5148 -5
      vertex 4 6.9282 -5
    endloop
  endfacet
  facet normal 0 0 -1
    outer loop
      vertex 6.06763 16.5916 -5
      vertex 4 6.9282 -5
      vertex 5.77885 16.2193 -5
    endloop
  endfacet
  facet normal 0 0 -1
    outer loop
      vertex 4 6.9282 -5
      vertex 0.939999 13.5591 -5
      vertex 1.40536 13.6328 -5
    endloop
  endfacet
  facet normal 0 0 -1
    outer loop
      vertex 4 6.9282 -5
      vertex 1.40536 13.6328 -5
      vertex 1.86517 13.7356 -5
    endloop
  endfacet
  facet normal 0 0 -1
    outer loop
      vertex 4 6.9282 -5
      vertex 1.86517 13.7356 -5
      vertex 2.31763 13.8671 -5
    endloop
  endfacet
  facet normal 0 0 -1
    outer loop
      vertex 4 6.9282 -5
      vertex 2.31763 13.8671 -5
      vertex 2.76093 14.0267 -5
    endloop
  endfacet
  facet normal 0 0 -1
    outer loop
      vertex 4 6.9282 -5
      vertex 2.76093 14.0267 -5
      vertex 3.19334 14.2138 -5
    endloop
  endfacet
  facet normal 0 0 -1
    outer loop
      vertex 4 6.9282 -5
      vertex 3.19334 14.2138 -5
      vertex 3.61315 14.4277 -5
    endloop
  endfacet
  facet normal 0 -0 -1
    outer loop
      vertex 4 6.9282 -5
      vertex 3.61315 14.4277 -5
      vertex 4.0187 14.6675 -5
    endloop
  endfacet
  facet normal 0 0 -1
    outer loop
      vertex 4 6.9282 -5
      vertex 4.0187 14.6675 -5
      vertex 4.40839 14.9324 -5
    endloop
  endfacet
  facet normal 0 0 -1
    outer loop
      vertex 4 6.9282 -5
      vertex 4.40839 14.9324 -5
      vertex 4.78068 15.2212 -5
    endloop
  endfacet
  facet normal 0 0 -1
    outer loop
      vertex 4 6.9282 -5
      vertex 4.78068 15.2212 -5
      vertex 5.1341 15.5327 -5
    endloop
  endfacet
  facet normal 0 0 -1
    outer loop
      vertex 4 6.9282 -5
      vertex 5.1341 15.5327 -5
      vertex 5.46726 15.8659 -5
    endloop
  endfacet
  facet normal 0 0 -1
    outer loop
      vertex 4 6.9282 -5
      vertex 5.46726 15.8659 -5
      vertex 5.77885 16.2193 -5
    endloop
  endfacet
  facet normal 0 -0 -1
    outer loop
      vertex -4 6.9282 -5
      vertex -4.0187 14.6675 -5
      vertex -3.61315 14.4277 -5
    endloop
  endfacet
  facet normal 0 0 -1
    outer loop
      vertex -4 6.9282 -5
      vertex -3.61315 14.4277 -5
      vertex -3.19334 14.2138 -5
    endloop
  endfacet
  facet normal 0 0 -1
    outer loop
      vertex -4 6.9282 -5
      vertex -3.19334 14.2138 -5
      vertex -2.76093 14.0267 -5
    endloop
  endfacet
  facet normal -0 0 -1
    outer loop
      vertex -4 6.9282 -5
      vertex -2.76093 14.0267 -5
      vertex 4 6.9282 -5
    endloop
  endfacet
  facet normal 0 0 -1
    outer loop
      vertex 7.36715 19.5946 -5
      vertex 7.44086 20.06 -5
      vertex 9.5 33 -5
    endloop
  endfacet
  facet normal -0 0 -1
    outer loop
      vertex 7.5 21 -5
      vertex 9.5 33 -5
      vertex 7.4852 20.5291 -5
    endloop
  endfacet
  facet normal -0 0 -1
    outer loop
      vertex 7.4852 21.4709 -5
      vertex 9.5 33 -5
      vertex 7.5 21 -5
    endloop
  endfacet
  facet normal -0 0 -1
    outer loop
      vertex 7.44086 21.94 -5
      vertex 9.5 33 -5
      vertex 7.4852 21.4709 -5
    endloop
  endfacet
  facet normal -0 0 -1
    outer loop
      vertex 7.36715 22.4054 -5
      vertex 9.5 33 -5
      vertex 7.44086 21.94 -5
    endloop
  endfacet
  facet normal -0 0 -1
    outer loop
      vertex 7.26437 22.8652 -5
      vertex 9.5 33 -5
      vertex 7.36715 22.4054 -5
    endloop
  endfacet
  facet normal -0 0 -1
    outer loop
      vertex 6.97332 23.7609 -5
      vertex 9.5 33 -5
      vertex 7.13292 23.3176 -5
    endloop
  endfacet
  facet normal -0 0 -1
    outer loop
      vertex 6.7862 24.1933 -5
      vertex 9.5 33 -5
      vertex 6.97332 23.7609 -5
    endloop
  endfacet
  facet normal -0 0 -1
    outer loop
      vertex 6.5723 24.6132 -5
      vertex 9.5 33 -5
      vertex 6.7862 24.1933 -5
    endloop
  endfacet
  facet normal -0 0 -1
    outer loop
      vertex 6.33246 25.0187 -5
      vertex 9.5 33 -5
      vertex 6.5723 24.6132 -5
    endloop
  endfacet
  facet normal -0 0 -1
    outer loop
      vertex 6.06763 25.4084 -5
      vertex 9.5 33 -5
      vertex 6.33246 25.0187 -5
    endloop
  endfacet
  facet normal 0 -0 -1
    outer loop
      vertex -5.77885 25.7807 -5
      vertex -9.5 33 -5
      vertex -5.46726 26.1341 -5
    endloop
  endfacet
  facet normal -0 -0 -1
    outer loop
      vertex 2.31763 28.1329 -5
      vertex -9.5 33 -5
      vertex 2.76093 27.9733 -5
    endloop
  endfacet
  facet normal 0 -0 -1
    outer loop
      vertex -0.470929 28.4852 -5
      vertex -9.5 33 -5
      vertex 0 28.5 -5
    endloop
  endfacet
  facet normal 0 -0 -1
    outer loop
      vertex 6.06763 25.4084 -5
      vertex 5.77885 25.7807 -5
      vertex 9.5 33 -5
    endloop
  endfacet
  facet normal 0 -0 -1
    outer loop
      vertex 5.77885 25.7807 -5
      vertex 5.46726 26.1341 -5
      vertex 9.5 33 -5
    endloop
  endfacet
  facet normal -0 -0 -1
    outer loop
      vertex 0 28.5 -5
      vertex -9.5 33 -5
      vertex 0.470929 28.4852 -5
    endloop
  endfacet
  facet normal 0 -0 -1
    outer loop
      vertex 5.46726 26.1341 -5
      vertex 5.1341 26.4673 -5
      vertex 9.5 33 -5
    endloop
  endfacet
  facet normal -0 -0 -1
    outer loop
      vertex 0.470929 28.4852 -5
      vertex -9.5 33 -5
      vertex 0.939999 28.4409 -5
    endloop
  endfacet
  facet normal 0 -0 -1
    outer loop
      vertex 5.1341 26.4673 -5
      vertex 4.78068 26.7788 -5
      vertex 9.5 33 -5
    endloop
  endfacet
  facet normal 0 -0 -1
    outer loop
      vertex 4.78068 26.7788 -5
      vertex 4.40839 27.0676 -5
      vertex 9.5 33 -5
    endloop
  endfacet
  facet normal -0 -0 -1
    outer loop
      vertex 0.939999 28.4409 -5
      vertex -9.5 33 -5
      vertex 1.40536 28.3672 -5
    endloop
  endfacet
  facet normal 0 -0 -1
    outer loop
      vertex 4.40839 27.0676 -5
      vertex 4.0187 27.3325 -5
      vertex 9.5 33 -5
    endloop
  endfacet
  facet normal -0 -0 -1
    outer loop
      vertex 1.40536 28.3672 -5
      vertex -9.5 33 -5
      vertex 1.86517 28.2644 -5
    endloop
  endfacet
  facet normal 0 -0 -1
    outer loop
      vertex 4.0187 27.3325 -5
      vertex 3.61315 27.5723 -5
      vertex 9.5 33 -5
    endloop
  endfacet
  facet normal -0 -0 -1
    outer loop
      vertex 1.86517 28.2644 -5
      vertex -9.5 33 -5
      vertex 2.31763 28.1329 -5
    endloop
  endfacet
  facet normal 0 -0 -1
    outer loop
      vertex 3.61315 27.5723 -5
      vertex 3.19334 27.7862 -5
      vertex 9.5 33 -5
    endloop
  endfacet
  facet normal 0 -0 -1
    outer loop
      vertex 3.19334 27.7862 -5
      vertex 2.76093 27.9733 -5
      vertex 9.5 33 -5
    endloop
  endfacet
  facet normal 0 -0 -1
    outer loop
      vertex -0.939999 28.4409 -5
      vertex -9.5 33 -5
      vertex -0.470929 28.4852 -5
    endloop
  endfacet
  facet normal 0 -0 -1
    outer loop
      vertex -1.40536 28.3672 -5
      vertex -9.5 33 -5
      vertex -0.939999 28.4409 -5
    endloop
  endfacet
  facet normal 0 -0 -1
    outer loop
      vertex -1.86517 28.2644 -5
      vertex -9.5 33 -5
      vertex -1.40536 28.3672 -5
    endloop
  endfacet
  facet normal 0 -0 -1
    outer loop
      vertex -2.31763 28.1329 -5
      vertex -9.5 33 -5
      vertex -1.86517 28.2644 -5
    endloop
  endfacet
  facet normal 0 -0 -1
    outer loop
      vertex -2.76093 27.9733 -5
      vertex -9.5 33 -5
      vertex -2.31763 28.1329 -5
    endloop
  endfacet
  facet normal 0 -0 -1
    outer loop
      vertex -3.19334 27.7862 -5
      vertex -9.5 33 -5
      vertex -2.76093 27.9733 -5
    endloop
  endfacet
  facet normal 0 -0 -1
    outer loop
      vertex -3.61315 27.5723 -5
      vertex -9.5 33 -5
      vertex -3.19334 27.7862 -5
    endloop
  endfacet
  facet normal 0 -0 -1
    outer loop
      vertex -4.0187 27.3325 -5
      vertex -9.5 33 -5
      vertex -3.61315 27.5723 -5
    endloop
  endfacet
  facet normal 0 -0 -1
    outer loop
      vertex -4.40839 27.0676 -5
      vertex -9.5 33 -5
      vertex -4.0187 27.3325 -5
    endloop
  endfacet
  facet normal 0 -0 -1
    outer loop
      vertex -4.78068 26.7788 -5
      vertex -9.5 33 -5
      vertex -4.40839 27.0676 -5
    endloop
  endfacet
  facet normal 0 -0 -1
    outer loop
      vertex -5.1341 26.4673 -5
      vertex -9.5 33 -5
      vertex -4.78068 26.7788 -5
    endloop
  endfacet
  facet normal 0 -0 -1
    outer loop
      vertex -5.46726 26.1341 -5
      vertex -9.5 33 -5
      vertex -5.1341 26.4673 -5
    endloop
  endfacet
  facet normal -0 -0 -1
    outer loop
      vertex -3.75 -14.5048 -5
      vertex -4 -6.9282 -5
      vertex 3.75 -14.5048 -5
    endloop
  endfacet
  facet normal -0 0 -1
    outer loop
      vertex 7.36715 19.5946 -5
      vertex 9.5 33 -5
      vertex 8 0 -5
    endloop
  endfacet
  facet normal 0 -0 -1
    outer loop
      vertex -6.06763 25.4084 -5
      vertex -9.5 33 -5
      vertex -5.77885 25.7807 -5
    endloop
  endfacet
  facet normal 0 0 -1
    outer loop
      vertex 0.939999 13.5591 -5
      vertex 4 6.9282 -5
      vertex 0.470929 13.5148 -5
    endloop
  endfacet
  facet normal 0 -0 -1
    outer loop
      vertex -7.4852 21.4709 -5
      vertex -9.5 33 -5
      vertex -7.44086 21.94 -5
    endloop
  endfacet
  facet normal 0 -0 -1
    outer loop
      vertex -7.5 21 -5
      vertex -9.5 33 -5
      vertex -7.4852 21.4709 -5
    endloop
  endfacet
  facet normal 0 -0 -1
    outer loop
      vertex -8 0 -5
      vertex -9.5 33 -5
      vertex -7.44086 20.06 -5
    endloop
  endfacet
  facet normal 0 0 -1
    outer loop
      vertex -8 0 -5
      vertex -7.44086 20.06 -5
      vertex -7.36715 19.5946 -5
    endloop
  endfacet
  facet normal 0 0 -1
    outer loop
      vertex -8 0 -5
      vertex -7.36715 19.5946 -5
      vertex -7.26437 19.1348 -5
    endloop
  endfacet
  facet normal 0 0 -1
    outer loop
      vertex -8 0 -5
      vertex -7.26437 19.1348 -5
      vertex -4 6.9282 -5
    endloop
  endfacet
  facet normal 0 0 -1
    outer loop
      vertex -4 6.9282 -5
      vertex -4.78068 15.2212 -5
      vertex -4.40839 14.9324 -5
    endloop
  endfacet
  facet normal 0 0 -1
    outer loop
      vertex -4 6.9282 -5
      vertex -4.40839 14.9324 -5
      vertex -4.0187 14.6675 -5
    endloop
  endfacet
  facet normal 0 0 -1
    outer loop
      vertex 3.75 -27.4952 -5
      vertex 9.5 -33 -5
      vertex -3.75 -27.4952 -5
    endloop
  endfacet
  facet normal 0 1 0
    outer loop
      vertex -9.5 33 -5
      vertex -9.5 33 5
      vertex 9.5 33 -5
    endloop
  endfacet
  facet normal 0 1 0
    outer loop
      vertex 9.5 33 -5
      vertex -9.5 33 5
      vertex 9.5 33 5
    endloop
  endfacet
  facet normal 0 -0 1
    outer loop
      vertex -3.75 -27.4952 5
      vertex -9.5 -33 5
      vertex 9.5 -33 5
    endloop
  endfacet
  facet normal 0 0 1
    outer loop
      vertex -4 6.9282 5
      vertex -0.470929 13.5148 5
      vertex -0.939999 13.5591 5
    endloop
  endfacet
  facet normal 0 0 1
    outer loop
      vertex -4 6.9282 5
      vertex -2.76093 14.0267 5
      vertex -3.19334 14.2138 5
    endloop
  endfacet
  facet normal 0 -0 1
    outer loop
      vertex -9.5 33 5
      vertex -9.5 -33 5
      vertex -8 0 5
    endloop
  endfacet
  facet normal 0 0 1
    outer loop
      vertex -8 0 5
      vertex -7.36715 19.5946 5
      vertex -9.5 33 5
    endloop
  endfacet
  facet normal 0 -0 1
    outer loop
      vertex 7.5 -21 5
      vertex 3.75 -27.4952 5
      vertex 9.5 -33 5
    endloop
  endfacet
  facet normal 0 0 1
    outer loop
      vertex 9.5 33 5
      vertex 8 0 5
      vertex 9.5 -33 5
    endloop
  endfacet
  facet normal 0 -0 1
    outer loop
      vertex 7.26437 19.1348 5
      vertex 4 6.9282 5
      vertex 8 0 5
    endloop
  endfacet
  facet normal 0 -0 1
    outer loop
      vertex 3.75 -27.4952 5
      vertex -3.75 -27.4952 5
      vertex 9.5 -33 5
    endloop
  endfacet
  facet normal 0 0 1
    outer loop
      vertex -7.5 -21 5
      vertex -3.75 -14.5048 5
      vertex -4 -6.9282 5
    endloop
  endfacet
  facet normal 0 0 1
    outer loop
      vertex -8 0 5
      vertex -7.5 -21 5
      vertex -4 -6.9282 5
    endloop
  endfacet
  facet normal 0 -0 1
    outer loop
      vertex -8 0 5
      vertex -9.5 -33 5
      vertex -7.5 -21 5
    endloop
  endfacet
  facet normal 0 0 1
    outer loop
      vertex 3.75 -14.5048 5
      vertex 7.5 -21 5
      vertex 4 -6.9282 5
    endloop
  endfacet
  facet normal 0 0 1
    outer loop
      vertex -4 6.9282 5
      vertex -1.40536 13.6328 5
      vertex -1.86517 13.7356 5
    endloop
  endfacet
  facet normal -0 0 1
    outer loop
      vertex -3.75 -27.4952 5
      vertex -7.5 -21 5
      vertex -9.5 -33 5
    endloop
  endfacet
  facet normal 0 0 1
    outer loop
      vertex -3.75 -14.5048 5
      vertex 3.75 -14.5048 5
      vertex -4 -6.9282 5
    endloop
  endfacet
  facet normal -0 -0 1
    outer loop
      vertex -6.7862 17.8067 5
      vertex -6.97332 18.2391 5
      vertex -4 6.9282 5
    endloop
  endfacet
  facet normal 0 0 1
    outer loop
      vertex -9.5 33 5
      vertex -7.4852 20.5291 5
      vertex -7.5 21 5
    endloop
  endfacet
  facet normal -0 -0 1
    outer loop
      vertex -6.5723 17.3868 5
      vertex -6.7862 17.8067 5
      vertex -4 6.9282 5
    endloop
  endfacet
  facet normal 0 0 1
    outer loop
      vertex -9.5 33 5
      vertex -7.5 21 5
      vertex -7.4852 21.4709 5
    endloop
  endfacet
  facet normal -0 -0 1
    outer loop
      vertex -6.33246 16.9813 5
      vertex -6.5723 17.3868 5
      vertex -4 6.9282 5
    endloop
  endfacet
  facet normal 0 0 1
    outer loop
      vertex -9.5 33 5
      vertex -7.4852 21.4709 5
      vertex -7.44086 21.94 5
    endloop
  endfacet
  facet normal 0 0 1
    outer loop
      vertex -9.5 33 5
      vertex -7.44086 21.94 5
      vertex -7.36715 22.4054 5
    endloop
  endfacet
  facet normal 0 0 1
    outer loop
      vertex -8 0 5
      vertex -7.13292 18.6824 5
      vertex -7.26437 19.1348 5
    endloop
  endfacet
  facet normal 0 0 1
    outer loop
      vertex -8 0 5
      vertex -6.97332 18.2391 5
      vertex -7.13292 18.6824 5
    endloop
  endfacet
  facet normal 0 0 1
    outer loop
      vertex -9.5 33 5
      vertex -7.26437 22.8652 5
      vertex -7.13292 23.3176 5
    endloop
  endfacet
  facet normal 0 0 1
    outer loop
      vertex -4 6.9282 5
      vertex -2.31763 13.8671 5
      vertex -2.76093 14.0267 5
    endloop
  endfacet
  facet normal 0 0 1
    outer loop
      vertex -9.5 33 5
      vertex -7.13292 23.3176 5
      vertex -6.97332 23.7609 5
    endloop
  endfacet
  facet normal 0 0 1
    outer loop
      vertex -4 6.9282 5
      vertex 0 13.5 5
      vertex -0.470929 13.5148 5
    endloop
  endfacet
  facet normal 0 0 1
    outer loop
      vertex -5.77885 25.7807 5
      vertex -5.46726 26.1341 5
      vertex -9.5 33 5
    endloop
  endfacet
  facet normal -0 0 1
    outer loop
      vertex -6.33246 25.0187 5
      vertex -9.5 33 5
      vertex -6.5723 24.6132 5
    endloop
  endfacet
  facet normal -0 -0 1
    outer loop
      vertex -5.77885 16.2193 5
      vertex -6.06763 16.5916 5
      vertex -4 6.9282 5
    endloop
  endfacet
  facet normal -0 0 1
    outer loop
      vertex -6.06763 25.4084 5
      vertex -9.5 33 5
      vertex -6.33246 25.0187 5
    endloop
  endfacet
  facet normal -0 -0 1
    outer loop
      vertex -6.06763 16.5916 5
      vertex -6.33246 16.9813 5
      vertex -4 6.9282 5
    endloop
  endfacet
  facet normal -0 0 1
    outer loop
      vertex -5.77885 25.7807 5
      vertex -9.5 33 5
      vertex -6.06763 25.4084 5
    endloop
  endfacet
  facet normal 0 0 1
    outer loop
      vertex -2.76093 27.9733 5
      vertex -2.31763 28.1329 5
      vertex 9.5 33 5
    endloop
  endfacet
  facet normal -0 0 1
    outer loop
      vertex -5.1341 26.4673 5
      vertex -9.5 33 5
      vertex -5.46726 26.1341 5
    endloop
  endfacet
  facet normal -0 0 1
    outer loop
      vertex -4.78068 26.7788 5
      vertex -9.5 33 5
      vertex -5.1341 26.4673 5
    endloop
  endfacet
  facet normal -0 0 1
    outer loop
      vertex -4.40839 27.0676 5
      vertex -9.5 33 5
      vertex -4.78068 26.7788 5
    endloop
  endfacet
  facet normal 0 0 1
    outer loop
      vertex -0.939999 28.4409 5
      vertex -0.470929 28.4852 5
      vertex 9.5 33 5
    endloop
  endfacet
  facet normal -0 0 1
    outer loop
      vertex -4.0187 27.3325 5
      vertex -9.5 33 5
      vertex -4.40839 27.0676 5
    endloop
  endfacet
  facet normal -0 0 1
    outer loop
      vertex -3.61315 27.5723 5
      vertex -9.5 33 5
      vertex -4.0187 27.3325 5
    endloop
  endfacet
  facet normal -0 0 1
    outer loop
      vertex -3.19334 27.7862 5
      vertex -9.5 33 5
      vertex -3.61315 27.5723 5
    endloop
  endfacet
  facet normal -0 0 1
    outer loop
      vertex -2.76093 27.9733 5
      vertex -9.5 33 5
      vertex -3.19334 27.7862 5
    endloop
  endfacet
  facet normal 0 0 1
    outer loop
      vertex -2.31763 28.1329 5
      vertex -1.86517 28.2644 5
      vertex 9.5 33 5
    endloop
  endfacet
  facet normal 0 0 1
    outer loop
      vertex 9.5 33 5
      vertex -9.5 33 5
      vertex -2.76093 27.9733 5
    endloop
  endfacet
  facet normal 0 0 1
    outer loop
      vertex -1.86517 28.2644 5
      vertex -1.40536 28.3672 5
      vertex 9.5 33 5
    endloop
  endfacet
  facet normal 0 0 1
    outer loop
      vertex 7.26437 22.8652 5
      vertex 7.36715 22.4054 5
      vertex 9.5 33 5
    endloop
  endfacet
  facet normal 0 0 1
    outer loop
      vertex -0.470929 28.4852 5
      vertex 0 28.5 5
      vertex 9.5 33 5
    endloop
  endfacet
  facet normal 0 -0 1
    outer loop
      vertex 2.76093 14.0267 5
      vertex 2.31763 13.8671 5
      vertex 4 6.9282 5
    endloop
  endfacet
  facet normal 0 0 1
    outer loop
      vertex 9.5 33 5
      vertex 0 28.5 5
      vertex 0.470929 28.4852 5
    endloop
  endfacet
  facet normal 0 -0 1
    outer loop
      vertex 0.939999 13.5591 5
      vertex 0.470929 13.5148 5
      vertex 4 6.9282 5
    endloop
  endfacet
  facet normal 0 0 1
    outer loop
      vertex 9.5 33 5
      vertex 0.470929 28.4852 5
      vertex 0.939999 28.4409 5
    endloop
  endfacet
  facet normal 0 -0 1
    outer loop
      vertex 0.470929 13.5148 5
      vertex 0 13.5 5
      vertex 4 6.9282 5
    endloop
  endfacet
  facet normal 0 0 1
    outer loop
      vertex 9.5 33 5
      vertex 0.939999 28.4409 5
      vertex 1.40536 28.3672 5
    endloop
  endfacet
  facet normal 0 0 1
    outer loop
      vertex 9.5 33 5
      vertex 1.40536 28.3672 5
      vertex 1.86517 28.2644 5
    endloop
  endfacet
  facet normal 0 0 1
    outer loop
      vertex 9.5 33 5
      vertex 1.86517 28.2644 5
      vertex 2.31763 28.1329 5
    endloop
  endfacet
  facet normal 0 -0 1
    outer loop
      vertex 3.19334 14.2138 5
      vertex 2.76093 14.0267 5
      vertex 4 6.9282 5
    endloop
  endfacet
  facet normal 0 0 1
    outer loop
      vertex 9.5 33 5
      vertex 2.31763 28.1329 5
      vertex 2.76093 27.9733 5
    endloop
  endfacet
  facet normal 0 0 1
    outer loop
      vertex 9.5 33 5
      vertex 2.76093 27.9733 5
      vertex 3.19334 27.7862 5
    endloop
  endfacet
  facet normal 0 0 1
    outer loop
      vertex 9.5 33 5
      vertex 3.19334 27.7862 5
      vertex 3.61315 27.5723 5
    endloop
  endfacet
  facet normal 0 -0 1
    outer loop
      vertex 3.61315 14.4277 5
      vertex 3.19334 14.2138 5
      vertex 4 6.9282 5
    endloop
  endfacet
  facet normal 0 0 1
    outer loop
      vertex 9.5 33 5
      vertex 3.61315 27.5723 5
      vertex 4.0187 27.3325 5
    endloop
  endfacet
  facet normal 0 0 1
    outer loop
      vertex 9.5 33 5
      vertex 4.0187 27.3325 5
      vertex 4.40839 27.0676 5
    endloop
  endfacet
  facet normal 0 0 1
    outer loop
      vertex 9.5 33 5
      vertex 4.40839 27.0676 5
      vertex 4.78068 26.7788 5
    endloop
  endfacet
  facet normal 0 0 1
    outer loop
      vertex 9.5 33 5
      vertex 4.78068 26.7788 5
      vertex 5.1341 26.4673 5
    endloop
  endfacet
  facet normal 0 0 1
    outer loop
      vertex 4.40839 14.9324 5
      vertex 4.0187 14.6675 5
      vertex 4 6.9282 5
    endloop
  endfacet
  facet normal 0 0 1
    outer loop
      vertex 9.5 33 5
      vertex 5.1341 26.4673 5
      vertex 5.46726 26.1341 5
    endloop
  endfacet
  facet normal 0 0 1
    outer loop
      vertex 9.5 33 5
      vertex 5.46726 26.1341 5
      vertex 5.77885 25.7807 5
    endloop
  endfacet
  facet normal 0 0 1
    outer loop
      vertex 4.78068 15.2212 5
      vertex 4.40839 14.9324 5
      vertex 4 6.9282 5
    endloop
  endfacet
  facet normal 0 0 1
    outer loop
      vertex 9.5 33 5
      vertex 5.77885 25.7807 5
      vertex 6.06763 25.4084 5
    endloop
  endfacet
  facet normal 0 0 1
    outer loop
      vertex 4.0187 14.6675 5
      vertex 3.61315 14.4277 5
      vertex 4 6.9282 5
    endloop
  endfacet
  facet normal 0 0 1
    outer loop
      vertex 9.5 33 5
      vertex 6.06763 25.4084 5
      vertex 6.33246 25.0187 5
    endloop
  endfacet
  facet normal 0 0 1
    outer loop
      vertex 9.5 33 5
      vertex 6.33246 25.0187 5
      vertex 6.5723 24.6132 5
    endloop
  endfacet
  facet normal 0 0 1
    outer loop
      vertex 9.5 33 5
      vertex 6.5723 24.6132 5
      vertex 6.7862 24.1933 5
    endloop
  endfacet
  facet normal 0 0 1
    outer loop
      vertex 9.5 33 5
      vertex 6.7862 24.1933 5
      vertex 6.97332 23.7609 5
    endloop
  endfacet
  facet normal 0 0 1
    outer loop
      vertex 5.46726 15.8659 5
      vertex 5.1341 15.5327 5
      vertex 4 6.9282 5
    endloop
  endfacet
  facet normal 0 0 1
    outer loop
      vertex 9.5 33 5
      vertex 6.97332 23.7609 5
      vertex 7.13292 23.3176 5
    endloop
  endfacet
  facet normal 0 0 1
    outer loop
      vertex 5.77885 16.2193 5
      vertex 5.46726 15.8659 5
      vertex 4 6.9282 5
    endloop
  endfacet
  facet normal 0 0 1
    outer loop
      vertex 9.5 33 5
      vertex 7.13292 23.3176 5
      vertex 7.26437 22.8652 5
    endloop
  endfacet
  facet normal 0 0 1
    outer loop
      vertex 7.13292 18.6824 5
      vertex 6.97332 18.2391 5
      vertex 4 6.9282 5
    endloop
  endfacet
  facet normal 0 -0 1
    outer loop
      vertex 7.44086 20.06 5
      vertex 7.36715 19.5946 5
      vertex 8 0 5
    endloop
  endfacet
  facet normal 0 0 1
    outer loop
      vertex 9.5 33 5
      vertex 7.36715 22.4054 5
      vertex 7.44086 21.94 5
    endloop
  endfacet
  facet normal 0 -0 1
    outer loop
      vertex 7.4852 20.5291 5
      vertex 7.44086 20.06 5
      vertex 8 0 5
    endloop
  endfacet
  facet normal 0 0 1
    outer loop
      vertex 9.5 33 5
      vertex 7.44086 21.94 5
      vertex 7.4852 21.4709 5
    endloop
  endfacet
  facet normal 0 0 1
    outer loop
      vertex 9.5 33 5
      vertex 7.5 21 5
      vertex 8 0 5
    endloop
  endfacet
  facet normal 0 0 1
    outer loop
      vertex 9.5 33 5
      vertex 7.4852 21.4709 5
      vertex 7.5 21 5
    endloop
  endfacet
  facet normal 0 -0 1
    outer loop
      vertex 7.36715 19.5946 5
      vertex 7.26437 19.1348 5
      vertex 8 0 5
    endloop
  endfacet
  facet normal 0 -0 1
    outer loop
      vertex 7.13292 18.6824 5
      vertex 4 6.9282 5
      vertex 7.26437 19.1348 5
    endloop
  endfacet
  facet normal 0 0 1
    outer loop
      vertex 6.33246 16.9813 5
      vertex 6.06763 16.5916 5
      vertex 4 6.9282 5
    endloop
  endfacet
  facet normal 0 -0 1
    outer loop
      vertex 6.7862 17.8067 5
      vertex 4 6.9282 5
      vertex 6.97332 18.2391 5
    endloop
  endfacet
  facet normal 0 -0 1
    outer loop
      vertex 6.5723 17.3868 5
      vertex 4 6.9282 5
      vertex 6.7862 17.8067 5
    endloop
  endfacet
  facet normal 0 -0 1
    outer loop
      vertex 6.33246 16.9813 5
      vertex 4 6.9282 5
      vertex 6.5723 17.3868 5
    endloop
  endfacet
  facet normal 0 0 1
    outer loop
      vertex 6.06763 16.5916 5
      vertex 5.77885 16.2193 5
      vertex 4 6.9282 5
    endloop
  endfacet
  facet normal 0 -0 1
    outer loop
      vertex 7.5 21 5
      vertex 7.4852 20.5291 5
      vertex 8 0 5
    endloop
  endfacet
  facet normal 0 -0 1
    outer loop
      vertex 2.31763 13.8671 5
      vertex 1.86517 13.7356 5
      vertex 4 6.9282 5
    endloop
  endfacet
  facet normal 0 -0 1
    outer loop
      vertex 1.86517 13.7356 5
      vertex 1.40536 13.6328 5
      vertex 4 6.9282 5
    endloop
  endfacet
  facet normal 0 -0 1
    outer loop
      vertex 1.40536 13.6328 5
      vertex 0.939999 13.5591 5
      vertex 4 6.9282 5
    endloop
  endfacet
  facet normal 0 -0 1
    outer loop
      vertex 8 0 5
      vertex 7.5 -21 5
      vertex 9.5 -33 5
    endloop
  endfacet
  facet normal 0 0 1
    outer loop
      vertex 8 0 5
      vertex 4 -6.9282 5
      vertex 7.5 -21 5
    endloop
  endfacet
  facet normal 0 0 1
    outer loop
      vertex 5.1341 15.5327 5
      vertex 4.78068 15.2212 5
      vertex 4 6.9282 5
    endloop
  endfacet
  facet normal 0 0 1
    outer loop
      vertex -4 6.9282 5
      vertex 4 6.9282 5
      vertex 0 13.5 5
    endloop
  endfacet
  facet normal 0 0 1
    outer loop
      vertex -4 6.9282 5
      vertex -0.939999 13.5591 5
      vertex -1.40536 13.6328 5
    endloop
  endfacet
  facet normal 0 0 1
    outer loop
      vertex -4 6.9282 5
      vertex -1.86517 13.7356 5
      vertex -2.31763 13.8671 5
    endloop
  endfacet
  facet normal 0 0 1
    outer loop
      vertex -8 0 5
      vertex -4 6.9282 5
      vertex -6.97332 18.2391 5
    endloop
  endfacet
  facet normal 0 0 1
    outer loop
      vertex -8 0 5
      vertex -7.26437 19.1348 5
      vertex -7.36715 19.5946 5
    endloop
  endfacet
  facet normal 0 0 1
    outer loop
      vertex -5.46726 15.8659 5
      vertex -4 6.9282 5
      vertex -5.1341 15.5327 5
    endloop
  endfacet
  facet normal 0 0 1
    outer loop
      vertex -5.77885 16.2193 5
      vertex -4 6.9282 5
      vertex -5.46726 15.8659 5
    endloop
  endfacet
  facet normal 0 0 1
    outer loop
      vertex -6.97332 23.7609 5
      vertex -6.7862 24.1933 5
      vertex -9.5 33 5
    endloop
  endfacet
  facet normal 0 0 1
    outer loop
      vertex -1.40536 28.3672 5
      vertex -0.939999 28.4409 5
      vertex 9.5 33 5
    endloop
  endfacet
  facet normal 0 0 1
    outer loop
      vertex -4 6.9282 5
      vertex -3.19334 14.2138 5
      vertex -3.61315 14.4277 5
    endloop
  endfacet
  facet normal 0 0 1
    outer loop
      vertex -9.5 33 5
      vertex -7.44086 20.06 5
      vertex -7.4852 20.5291 5
    endloop
  endfacet
  facet normal 0 0 1
    outer loop
      vertex -9.5 33 5
      vertex -7.36715 19.5946 5
      vertex -7.44086 20.06 5
    endloop
  endfacet
  facet normal 0 0 1
    outer loop
      vertex -4 6.9282 5
      vertex -4.78068 15.2212 5
      vertex -5.1341 15.5327 5
    endloop
  endfacet
  facet normal 0 0 1
    outer loop
      vertex -6.7862 24.1933 5
      vertex -6.5723 24.6132 5
      vertex -9.5 33 5
    endloop
  endfacet
  facet normal 0 0 1
    outer loop
      vertex -4 6.9282 5
      vertex -4.40839 14.9324 5
      vertex -4.78068 15.2212 5
    endloop
  endfacet
  facet normal 0 0 1
    outer loop
      vertex -4 6.9282 5
      vertex -4.0187 14.6675 5
      vertex -4.40839 14.9324 5
    endloop
  endfacet
  facet normal 0 0 1
    outer loop
      vertex -4 6.9282 5
      vertex -3.61315 14.4277 5
      vertex -4.0187 14.6675 5
    endloop
  endfacet
  facet normal 0 0 1
    outer loop
      vertex -7.36715 22.4054 5
      vertex -7.26437 22.8652 5
      vertex -9.5 33 5
    endloop
  endfacet
  facet normal 0 0 1
    outer loop
      vertex 4 -6.9282 5
      vertex -4 -6.9282 5
      vertex 3.75 -14.5048 5
    endloop
  endfacet
  facet normal 1 0 -0
    outer loop
      vertex 9.5 -33 5
      vertex 9.5 -33 -5
      vertex 9.5 33 -5
    endloop
  endfacet
  facet normal 1 0 0
    outer loop
      vertex 9.5 33 5
      vertex 9.5 -33 5
      vertex 9.5 33 -5
    endloop
  endfacet
  facet normal 0.866025 0.5 0
    outer loop
      vertex -8 0 5
      vertex -4 -6.9282 5
      vertex -4 -6.9282 -5
    endloop
  endfacet
  facet normal 0.866025 0.5 0
    outer loop
      vertex -8 0 -5
      vertex -8 0 5
      vertex -4 -6.9282 -5
    endloop
  endfacet
  facet normal 0.866025 -0.5 0
    outer loop
      vertex -4 6.9282 -5
      vertex -4 6.9282 5
      vertex -8 0 5
    endloop
  endfacet
  facet normal 0.866025 -0.5 0
    outer loop
      vertex -8 0 -5
      vertex -4 6.9282 -5
      vertex -8 0 5
    endloop
  endfacet
  facet normal 0 -1 0
    outer loop
      vertex 4 6.9282 -5
      vertex 4 6.9282 5
      vertex -4 6.9282 5
    endloop
  endfacet
  facet normal -0 -1 -0
    outer loop
      vertex -4 6.9282 -5
      vertex 4 6.9282 -5
      vertex -4 6.9282 5
    endloop
  endfacet
  facet normal -0.866025 -0.5 0
    outer loop
      vertex 8 0 5
      vertex 4 6.9282 5
      vertex 8 0 -5
    endloop
  endfacet
  facet normal -0.866025 -0.5 0
    outer loop
      vertex 8 0 -5
      vertex 4 6.9282 5
      vertex 4 6.9282 -5
    endloop
  endfacet
  facet normal -0.866025 0.5 0
    outer loop
      vertex 8 0 5
      vertex 8 0 -5
      vertex 4 -6.9282 5
    endloop
  endfacet
  facet normal -0.866025 0.5 0
    outer loop
      vertex 4 -6.9282 5
      vertex 8 0 -5
      vertex 4 -6.9282 -5
    endloop
  endfacet
  facet normal 0 1 0
    outer loop
      vertex 4 -6.9282 5
      vertex 4 -6.9282 -5
      vertex -4 -6.9282 5
    endloop
  endfacet
  facet normal 0 1 -0
    outer loop
      vertex -4 -6.9282 5
      vertex 4 -6.9282 -5
      vertex -4 -6.9282 -5
    endloop
  endfacet
  facet normal 0.866025 -0.5 0
    outer loop
      vertex -3.75 -14.5048 -5
      vertex -3.75 -14.5048 5
      vertex -7.5 -21 5
    endloop
  endfacet
  facet normal 0.866025 -0.5 0
    outer loop
      vertex -7.5 -21 -5
      vertex -3.75 -14.5048 -5
      vertex -7.5 -21 5
    endloop
  endfacet
  facet normal 0.866025 0.5 0
    outer loop
      vertex -7.5 -21 5
      vertex -3.75 -27.4952 5
      vertex -3.75 -27.4952 -5
    endloop
  endfacet
  facet normal 0.866025 0.5 0
    outer loop
      vertex -7.5 -21 -5
      vertex -7.5 -21 5
      vertex -3.75 -27.4952 -5
    endloop
  endfacet
  facet normal 0 -1 0
    outer loop
      vertex 3.75 -14.5048 -5
      vertex 3.75 -14.5048 5
      vertex -3.75 -14.5048 5
    endloop
  endfacet
  facet normal -0 -1 -0
    outer loop
      vertex -3.75 -14.5048 -5
      vertex 3.75 -14.5048 -5
      vertex -3.75 -14.5048 5
    endloop
  endfacet
  facet normal -0.866025 -0.5 0
    outer loop
      vertex 7.5 -21 5
      vertex 3.75 -14.5048 5
      vertex 7.5 -21 -5
    endloop
  endfacet
  facet normal -0.866025 -0.5 0
    outer loop
      vertex 7.5 -21 -5
      vertex 3.75 -14.5048 5
      vertex 3.75 -14.5048 -5
    endloop
  endfacet
  facet normal -0.866025 0.5 0
    outer loop
      vertex 7.5 -21 5
      vertex 7.5 -21 -5
      vertex 3.75 -27.4952 5
    endloop
  endfacet
  facet normal -0.866025 0.5 0
    outer loop
      vertex 3.75 -27.4952 5
      vertex 7.5 -21 -5
      vertex 3.75 -27.4952 -5
    endloop
  endfacet
  facet normal 0 1 0
    outer loop
      vertex 3.75 -27.4952 5
      vertex 3.75 -27.4952 -5
      vertex -3.75 -27.4952 5
    endloop
  endfacet
  facet normal 0 1 -0
    outer loop
      vertex -3.75 -27.4952 5
      vertex 3.75 -27.4952 -5
      vertex -3.75 -27.4952 -5
    endloop
  endfacet
  facet normal 0.999507 -0.0314117 0
    outer loop
      vertex -7.4852 21.4709 -5
      vertex -7.4852 21.4709 5
      vertex -7.5 21 5
    endloop
  endfacet
  facet normal 0.999507 -0.0314117 0
    outer loop
      vertex -7.5 21 -5
      vertex -7.4852 21.4709 -5
      vertex -7.5 21 5
    endloop
  endfacet
  facet normal 0.999507 0.0314117 0
    outer loop
      vertex -7.5 21 5
      vertex -7.4852 20.5291 5
      vertex -7.4852 20.5291 -5
    endloop
  endfacet
  facet normal 0.999507 0.0314117 0
    outer loop
      vertex -7.5 21 -5
      vertex -7.5 21 5
      vertex -7.4852 20.5291 -5
    endloop
  endfacet
  facet normal 0.995562 -0.094108 0
    outer loop
      vertex -7.44086 21.94 -5
      vertex -7.44086 21.94 5
      vertex -7.4852 21.4709 5
    endloop
  endfacet
  facet normal 0.995562 -0.094108 0
    outer loop
      vertex -7.4852 21.4709 -5
      vertex -7.44086 21.94 -5
      vertex -7.4852 21.4709 5
    endloop
  endfacet
  facet normal 0.987688 -0.156435 0
    outer loop
      vertex -7.36715 22.4054 -5
      vertex -7.36715 22.4054 5
      vertex -7.44086 21.94 5
    endloop
  endfacet
  facet normal 0.987688 -0.156435 0
    outer loop
      vertex -7.44086 21.94 -5
      vertex -7.36715 22.4054 -5
      vertex -7.44086 21.94 5
    endloop
  endfacet
  facet normal 0.975917 -0.218142 0
    outer loop
      vertex -7.26437 22.8652 -5
      vertex -7.26437 22.8652 5
      vertex -7.36715 22.4054 5
    endloop
  endfacet
  facet normal 0.975917 -0.218142 0
    outer loop
      vertex -7.36715 22.4054 -5
      vertex -7.26437 22.8652 -5
      vertex -7.36715 22.4054 5
    endloop
  endfacet
  facet normal 0.960294 -0.278992 0
    outer loop
      vertex -7.13292 23.3176 -5
      vertex -7.13292 23.3176 5
      vertex -7.26437 22.8652 5
    endloop
  endfacet
  facet normal 0.960294 -0.278992 0
    outer loop
      vertex -7.26437 22.8652 -5
      vertex -7.13292 23.3176 -5
      vertex -7.26437 22.8652 5
    endloop
  endfacet
  facet normal 0.940881 -0.338737 0
    outer loop
      vertex -6.97332 23.7609 -5
      vertex -6.97332 23.7609 5
      vertex -7.13292 23.3176 5
    endloop
  endfacet
  facet normal 0.940881 -0.338737 0
    outer loop
      vertex -7.13292 23.3176 -5
      vertex -6.97332 23.7609 -5
      vertex -7.13292 23.3176 5
    endloop
  endfacet
  facet normal 0.917755 -0.397148 0
    outer loop
      vertex -6.7862 24.1933 -5
      vertex -6.7862 24.1933 5
      vertex -6.97332 23.7609 5
    endloop
  endfacet
  facet normal 0.917755 -0.397148 0
    outer loop
      vertex -6.97332 23.7609 -5
      vertex -6.7862 24.1933 -5
      vertex -6.97332 23.7609 5
    endloop
  endfacet
  facet normal 0.891006 -0.453991 0
    outer loop
      vertex -6.5723 24.6132 -5
      vertex -6.5723 24.6132 5
      vertex -6.7862 24.1933 5
    endloop
  endfacet
  facet normal 0.891006 -0.453991 0
    outer loop
      vertex -6.7862 24.1933 -5
      vertex -6.5723 24.6132 -5
      vertex -6.7862 24.1933 5
    endloop
  endfacet
  facet normal 0.860741 -0.509042 0
    outer loop
      vertex -6.33246 25.0187 -5
      vertex -6.33246 25.0187 5
      vertex -6.5723 24.6132 5
    endloop
  endfacet
  facet normal 0.860741 -0.509042 0
    outer loop
      vertex -6.5723 24.6132 -5
      vertex -6.33246 25.0187 -5
      vertex -6.5723 24.6132 5
    endloop
  endfacet
  facet normal 0.82708 -0.562084 0
    outer loop
      vertex -6.06763 25.4084 -5
      vertex -6.06763 25.4084 5
      vertex -6.33246 25.0187 5
    endloop
  endfacet
  facet normal 0.82708 -0.562084 0
    outer loop
      vertex -6.33246 25.0187 -5
      vertex -6.06763 25.4084 -5
      vertex -6.33246 25.0187 5
    endloop
  endfacet
  facet normal 0.790156 -0.612906 0
    outer loop
      vertex -5.77885 25.7807 -5
      vertex -5.77885 25.7807 5
      vertex -6.06763 25.4084 5
    endloop
  endfacet
  facet normal 0.790156 -0.612906 0
    outer loop
      vertex -6.06763 25.4084 -5
      vertex -5.77885 25.7807 -5
      vertex -6.06763 25.4084 5
    endloop
  endfacet
  facet normal 0.750111 -0.661312 0
    outer loop
      vertex -5.46726 26.1341 -5
      vertex -5.46726 26.1341 5
      vertex -5.77885 25.7807 5
    endloop
  endfacet
  facet normal 0.750111 -0.661312 0
    outer loop
      vertex -5.77885 25.7807 -5
      vertex -5.46726 26.1341 -5
      vertex -5.77885 25.7807 5
    endloop
  endfacet
  facet normal 0.707107 -0.707107 0
    outer loop
      vertex -5.1341 26.4673 -5
      vertex -5.1341 26.4673 5
      vertex -5.46726 26.1341 5
    endloop
  endfacet
  facet normal 0.707107 -0.707107 0
    outer loop
      vertex -5.46726 26.1341 -5
      vertex -5.1341 26.4673 -5
      vertex -5.46726 26.1341 5
    endloop
  endfacet
  facet normal 0.661312 -0.750111 0
    outer loop
      vertex -4.78068 26.7788 -5
      vertex -4.78068 26.7788 5
      vertex -5.1341 26.4673 5
    endloop
  endfacet
  facet normal 0.661312 -0.750111 0
    outer loop
      vertex -5.1341 26.4673 -5
      vertex -4.78068 26.7788 -5
      vertex -5.1341 26.4673 5
    endloop
  endfacet
  facet normal 0.612906 -0.790156 0
    outer loop
      vertex -4.40839 27.0676 -5
      vertex -4.40839 27.0676 5
      vertex -4.78068 26.7788 5
    endloop
  endfacet
  facet normal 0.612906 -0.790156 0
    outer loop
      vertex -4.78068 26.7788 -5
      vertex -4.40839 27.0676 -5
      vertex -4.78068 26.7788 5
    endloop
  endfacet
  facet normal 0.562084 -0.82708 0
    outer loop
      vertex -4.0187 27.3325 -5
      vertex -4.0187 27.3325 5
      vertex -4.40839 27.0676 5
    endloop
  endfacet
  facet normal 0.562084 -0.82708 0
    outer loop
      vertex -4.40839 27.0676 -5
      vertex -4.0187 27.3325 -5
      vertex -4.40839 27.0676 5
    endloop
  endfacet
  facet normal 0.509042 -0.860741 0
    outer loop
      vertex -3.61315 27.5723 -5
      vertex -3.61315 27.5723 5
      vertex -4.0187 27.3325 5
    endloop
  endfacet
  facet normal 0.509042 -0.860741 0
    outer loop
      vertex -4.0187 27.3325 -5
      vertex -3.61315 27.5723 -5
      vertex -4.0187 27.3325 5
    endloop
  endfacet
  facet normal 0.453991 -0.891006 0
    outer loop
      vertex -3.19334 27.7862 -5
      vertex -3.19334 27.7862 5
      vertex -3.61315 27.5723 5
    endloop
  endfacet
  facet normal 0.453991 -0.891006 0
    outer loop
      vertex -3.61315 27.5723 -5
      vertex -3.19334 27.7862 -5
      vertex -3.61315 27.5723 5
    endloop
  endfacet
  facet normal 0.397148 -0.917755 0
    outer loop
      vertex -2.76093 27.9733 -5
      vertex -2.76093 27.9733 5
      vertex -3.19334 27.7862 5
    endloop
  endfacet
  facet normal 0.397148 -0.917755 0
    outer loop
      vertex -3.19334 27.7862 -5
      vertex -2.76093 27.9733 -5
      vertex -3.19334 27.7862 5
    endloop
  endfacet
  facet normal 0.338737 -0.940881 0
    outer loop
      vertex -2.31763 28.1329 -5
      vertex -2.31763 28.1329 5
      vertex -2.76093 27.9733 5
    endloop
  endfacet
  facet normal 0.338737 -0.940881 0
    outer loop
      vertex -2.76093 27.9733 -5
      vertex -2.31763 28.1329 -5
      vertex -2.76093 27.9733 5
    endloop
  endfacet
  facet normal 0.278992 -0.960294 0
    outer loop
      vertex -1.86517 28.2644 -5
      vertex -1.86517 28.2644 5
      vertex -2.31763 28.1329 5
    endloop
  endfacet
  facet normal 0.278992 -0.960294 0
    outer loop
      vertex -2.31763 28.1329 -5
      vertex -1.86517 28.2644 -5
      vertex -2.31763 28.1329 5
    endloop
  endfacet
  facet normal 0.218142 -0.975917 0
    outer loop
      vertex -1.40536 28.3672 -5
      vertex -1.40536 28.3672 5
      vertex -1.86517 28.2644 5
    endloop
  endfacet
  facet normal 0.218142 -0.975917 0
    outer loop
      vertex -1.86517 28.2644 -5
      vertex -1.40536 28.3672 -5
      vertex -1.86517 28.2644 5
    endloop
  endfacet
  facet normal 0.156435 -0.987688 0
    outer loop
      vertex -0.939999 28.4409 -5
      vertex -0.939999 28.4409 5
      vertex -1.40536 28.3672 5
    endloop
  endfacet
  facet normal 0.156435 -0.987688 0
    outer loop
      vertex -1.40536 28.3672 -5
      vertex -0.939999 28.4409 -5
      vertex -1.40536 28.3672 5
    endloop
  endfacet
  facet normal 0.094108 -0.995562 0
    outer loop
      vertex -0.470929 28.4852 -5
      vertex -0.470929 28.4852 5
      vertex -0.939999 28.4409 5
    endloop
  endfacet
  facet normal 0.094108 -0.995562 0
    outer loop
      vertex -0.939999 28.4409 -5
      vertex -0.470929 28.4852 -5
      vertex -0.939999 28.4409 5
    endloop
  endfacet
  facet normal 0.0314117 -0.999507 0
    outer loop
      vertex 0 28.5 -5
      vertex 0 28.5 5
      vertex -0.470929 28.4852 5
    endloop
  endfacet
  facet normal 0.0314117 -0.999507 0
    outer loop
      vertex -0.470929 28.4852 -5
      vertex 0 28.5 -5
      vertex -0.470929 28.4852 5
    endloop
  endfacet
  facet normal -0.0314117 -0.999507 -0
    outer loop
      vertex 0.470929 28.4852 -5
      vertex 0.470929 28.4852 5
      vertex 0 28.5 5
    endloop
  endfacet
  facet normal -0.0314117 -0.999507 -0
    outer loop
      vertex 0 28.5 -5
      vertex 0.470929 28.4852 -5
      vertex 0 28.5 5
    endloop
  endfacet
  facet normal -0.094108 -0.995562 -0
    outer loop
      vertex 0.939999 28.4409 -5
      vertex 0.939999 28.4409 5
      vertex 0.470929 28.4852 5
    endloop
  endfacet
  facet normal -0.094108 -0.995562 -0
    outer loop
      vertex 0.470929 28.4852 -5
      vertex 0.939999 28.4409 -5
      vertex 0.470929 28.4852 5
    endloop
  endfacet
  facet normal -0.156435 -0.987688 -0
    outer loop
      vertex 1.40536 28.3672 -5
      vertex 1.40536 28.3672 5
      vertex 0.939999 28.4409 5
    endloop
  endfacet
  facet normal -0.156435 -0.987688 -0
    outer loop
      vertex 0.939999 28.4409 -5
      vertex 1.40536 28.3672 -5
      vertex 0.939999 28.4409 5
    endloop
  endfacet
  facet normal -0.218142 -0.975917 -0
    outer loop
      vertex 1.86517 28.2644 -5
      vertex 1.86517 28.2644 5
      vertex 1.40536 28.3672 5
    endloop
  endfacet
  facet normal -0.218142 -0.975917 -0
    outer loop
      vertex 1.40536 28.3672 -5
      vertex 1.86517 28.2644 -5
      vertex 1.40536 28.3672 5
    endloop
  endfacet
  facet normal -0.278992 -0.960294 -0
    outer loop
      vertex 2.31763 28.1329 -5
      vertex 2.31763 28.1329 5
      vertex 1.86517 28.2644 5
    endloop
  endfacet
  facet normal -0.278992 -0.960294 -0
    outer loop
      vertex 1.86517 28.2644 -5
      vertex 2.31763 28.1329 -5
      vertex 1.86517 28.2644 5
    endloop
  endfacet
  facet normal -0.338737 -0.940881 -0
    outer loop
      vertex 2.76093 27.9733 -5
      vertex 2.76093 27.9733 5
      vertex 2.31763 28.1329 5
    endloop
  endfacet
  facet normal -0.338737 -0.940881 -0
    outer loop
      vertex 2.31763 28.1329 -5
      vertex 2.76093 27.9733 -5
      vertex 2.31763 28.1329 5
    endloop
  endfacet
  facet normal -0.397148 -0.917755 -0
    outer loop
      vertex 3.19334 27.7862 -5
      vertex 3.19334 27.7862 5
      vertex 2.76093 27.9733 5
    endloop
  endfacet
  facet normal -0.397148 -0.917755 -0
    outer loop
      vertex 2.76093 27.9733 -5
      vertex 3.19334 27.7862 -5
      vertex 2.76093 27.9733 5
    endloop
  endfacet
  facet normal -0.453991 -0.891006 -0
    outer loop
      vertex 3.61315 27.5723 -5
      vertex 3.61315 27.5723 5
      vertex 3.19334 27.7862 5
    endloop
  endfacet
  facet normal -0.453991 -0.891006 -0
    outer loop
      vertex 3.19334 27.7862 -5
      vertex 3.61315 27.5723 -5
      vertex 3.19334 27.7862 5
    endloop
  endfacet
  facet normal -0.509042 -0.860741 -0
    outer loop
      vertex 4.0187 27.3325 -5
      vertex 4.0187 27.3325 5
      vertex 3.61315 27.5723 5
    endloop
  endfacet
  facet normal -0.509042 -0.860741 -0
    outer loop
      vertex 3.61315 27.5723 -5
      vertex 4.0187 27.3325 -5
      vertex 3.61315 27.5723 5
    endloop
  endfacet
  facet normal -0.562084 -0.82708 -0
    outer loop
      vertex 4.40839 27.0676 -5
      vertex 4.40839 27.0676 5
      vertex 4.0187 27.3325 5
    endloop
  endfacet
  facet normal -0.562084 -0.82708 -0
    outer loop
      vertex 4.0187 27.3325 -5
      vertex 4.40839 27.0676 -5
      vertex 4.0187 27.3325 5
    endloop
  endfacet
  facet normal -0.612906 -0.790156 -0
    outer loop
      vertex 4.78068 26.7788 -5
      vertex 4.78068 26.7788 5
      vertex 4.40839 27.0676 5
    endloop
  endfacet
  facet normal -0.612906 -0.790156 -0
    outer loop
      vertex 4.40839 27.0676 -5
      vertex 4.78068 26.7788 -5
      vertex 4.40839 27.0676 5
    endloop
  endfacet
  facet normal -0.661312 -0.750111 -0
    outer loop
      vertex 5.1341 26.4673 -5
      vertex 5.1341 26.4673 5
      vertex 4.78068 26.7788 5
    endloop
  endfacet
  facet normal -0.661312 -0.750111 -0
    outer loop
      vertex 4.78068 26.7788 -5
      vertex 5.1341 26.4673 -5
      vertex 4.78068 26.7788 5
    endloop
  endfacet
  facet normal -0.707107 -0.707107 -0
    outer loop
      vertex 5.46726 26.1341 -5
      vertex 5.46726 26.1341 5
      vertex 5.1341 26.4673 5
    endloop
  endfacet
  facet normal -0.707107 -0.707107 -0
    outer loop
      vertex 5.1341 26.4673 -5
      vertex 5.46726 26.1341 -5
      vertex 5.1341 26.4673 5
    endloop
  endfacet
  facet normal -0.750111 -0.661312 0
    outer loop
      vertex 5.77885 25.7807 5
      vertex 5.46726 26.1341 5
      vertex 5.77885 25.7807 -5
    endloop
  endfacet
  facet normal -0.750111 -0.661312 0
    outer loop
      vertex 5.77885 25.7807 -5
      vertex 5.46726 26.1341 5
      vertex 5.46726 26.1341 -5
    endloop
  endfacet
  facet normal -0.790156 -0.612906 0
    outer loop
      vertex 6.06763 25.4084 5
      vertex 5.77885 25.7807 5
      vertex 6.06763 25.4084 -5
    endloop
  endfacet
  facet normal -0.790156 -0.612906 0
    outer loop
      vertex 6.06763 25.4084 -5
      vertex 5.77885 25.7807 5
      vertex 5.77885 25.7807 -5
    endloop
  endfacet
  facet normal -0.82708 -0.562084 0
    outer loop
      vertex 6.33246 25.0187 5
      vertex 6.06763 25.4084 5
      vertex 6.33246 25.0187 -5
    endloop
  endfacet
  facet normal -0.82708 -0.562084 0
    outer loop
      vertex 6.33246 25.0187 -5
      vertex 6.06763 25.4084 5
      vertex 6.06763 25.4084 -5
    endloop
  endfacet
  facet normal -0.860741 -0.509042 0
    outer loop
      vertex 6.5723 24.6132 5
      vertex 6.33246 25.0187 5
      vertex 6.5723 24.6132 -5
    endloop
  endfacet
  facet normal -0.860741 -0.509042 0
    outer loop
      vertex 6.5723 24.6132 -5
      vertex 6.33246 25.0187 5
      vertex 6.33246 25.0187 -5
    endloop
  endfacet
  facet normal -0.891006 -0.453991 0
    outer loop
      vertex 6.7862 24.1933 5
      vertex 6.5723 24.6132 5
      vertex 6.7862 24.1933 -5
    endloop
  endfacet
  facet normal -0.891006 -0.453991 0
    outer loop
      vertex 6.7862 24.1933 -5
      vertex 6.5723 24.6132 5
      vertex 6.5723 24.6132 -5
    endloop
  endfacet
  facet normal -0.917755 -0.397148 0
    outer loop
      vertex 6.97332 23.7609 5
      vertex 6.7862 24.1933 5
      vertex 6.97332 23.7609 -5
    endloop
  endfacet
  facet normal -0.917755 -0.397148 0
    outer loop
      vertex 6.97332 23.7609 -5
      vertex 6.7862 24.1933 5
      vertex 6.7862 24.1933 -5
    endloop
  endfacet
  facet normal -0.940881 -0.338737 0
    outer loop
      vertex 7.13292 23.3176 5
      vertex 6.97332 23.7609 5
      vertex 7.13292 23.3176 -5
    endloop
  endfacet
  facet normal -0.940881 -0.338737 0
    outer loop
      vertex 7.13292 23.3176 -5
      vertex 6.97332 23.7609 5
      vertex 6.97332 23.7609 -5
    endloop
  endfacet
  facet normal -0.960294 -0.278992 0
    outer loop
      vertex 7.26437 22.8652 5
      vertex 7.13292 23.3176 5
      vertex 7.26437 22.8652 -5
    endloop
  endfacet
  facet normal -0.960294 -0.278992 0
    outer loop
      vertex 7.26437 22.8652 -5
      vertex 7.13292 23.3176 5
      vertex 7.13292 23.3176 -5
    endloop
  endfacet
  facet normal -0.975917 -0.218142 0
    outer loop
      vertex 7.36715 22.4054 5
      vertex 7.26437 22.8652 5
      vertex 7.36715 22.4054 -5
    endloop
  endfacet
  facet normal -0.975917 -0.218142 0
    outer loop
      vertex 7.36715 22.4054 -5
      vertex 7.26437 22.8652 5
      vertex 7.26437 22.8652 -5
    endloop
  endfacet
  facet normal -0.987688 -0.156435 0
    outer loop
      vertex 7.44086 21.94 5
      vertex 7.36715 22.4054 5
      vertex 7.44086 21.94 -5
    endloop
  endfacet
  facet normal -0.987688 -0.156435 0
    outer loop
      vertex 7.44086 21.94 -5
      vertex 7.36715 22.4054 5
      vertex 7.36715 22.4054 -5
    endloop
  endfacet
  facet normal -0.995562 -0.094108 0
    outer loop
      vertex 7.4852 21.4709 5
      vertex 7.44086 21.94 5
      vertex 7.4852 21.4709 -5
    endloop
  endfacet
  facet normal -0.995562 -0.094108 0
    outer loop
      vertex 7.4852 21.4709 -5
      vertex 7.44086 21.94 5
      vertex 7.44086 21.94 -5
    endloop
  endfacet
  facet normal -0.999507 -0.0314117 0
    outer loop
      vertex 7.5 21 5
      vertex 7.4852 21.4709 5
      vertex 7.5 21 -5
    endloop
  endfacet
  facet normal -0.999507 -0.0314117 0
    outer loop
      vertex 7.5 21 -5
      vertex 7.4852 21.4709 5
      vertex 7.4852 21.4709 -5
    endloop
  endfacet
  facet normal -0.999507 0.0314117 0
    outer loop
      vertex 7.5 21 5
      vertex 7.5 21 -5
      vertex 7.4852 20.5291 5
    endloop
  endfacet
  facet normal -0.999507 0.0314117 0
    outer loop
      vertex 7.4852 20.5291 5
      vertex 7.5 21 -5
      vertex 7.4852 20.5291 -5
    endloop
  endfacet
  facet normal -0.995562 0.094108 0
    outer loop
      vertex 7.4852 20.5291 5
      vertex 7.4852 20.5291 -5
      vertex 7.44086 20.06 5
    endloop
  endfacet
  facet normal -0.995562 0.094108 0
    outer loop
      vertex 7.44086 20.06 5
      vertex 7.4852 20.5291 -5
      vertex 7.44086 20.06 -5
    endloop
  endfacet
  facet normal -0.987688 0.156435 0
    outer loop
      vertex 7.44086 20.06 5
      vertex 7.44086 20.06 -5
      vertex 7.36715 19.5946 5
    endloop
  endfacet
  facet normal -0.987688 0.156435 0
    outer loop
      vertex 7.36715 19.5946 5
      vertex 7.44086 20.06 -5
      vertex 7.36715 19.5946 -5
    endloop
  endfacet
  facet normal -0.975917 0.218142 0
    outer loop
      vertex 7.36715 19.5946 5
      vertex 7.36715 19.5946 -5
      vertex 7.26437 19.1348 5
    endloop
  endfacet
  facet normal -0.975917 0.218142 0
    outer loop
      vertex 7.26437 19.1348 5
      vertex 7.36715 19.5946 -5
      vertex 7.26437 19.1348 -5
    endloop
  endfacet
  facet normal -0.960294 0.278992 0
    outer loop
      vertex 7.26437 19.1348 5
      vertex 7.26437 19.1348 -5
      vertex 7.13292 18.6824 5
    endloop
  endfacet
  facet normal -0.960294 0.278992 0
    outer loop
      vertex 7.13292 18.6824 5
      vertex 7.26437 19.1348 -5
      vertex 7.13292 18.6824 -5
    endloop
  endfacet
  facet normal -0.940881 0.338737 0
    outer loop
      vertex 7.13292 18.6824 5
      vertex 7.13292 18.6824 -5
      vertex 6.97332 18.2391 5
    endloop
  endfacet
  facet normal -0.940881 0.338737 0
    outer loop
      vertex 6.97332 18.2391 5
      vertex 7.13292 18.6824 -5
      vertex 6.97332 18.2391 -5
    endloop
  endfacet
  facet normal -0.917755 0.397148 0
    outer loop
      vertex 6.97332 18.2391 5
      vertex 6.97332 18.2391 -5
      vertex 6.7862 17.8067 5
    endloop
  endfacet
  facet normal -0.917755 0.397148 0
    outer loop
      vertex 6.7862 17.8067 5
      vertex 6.97332 18.2391 -5
      vertex 6.7862 17.8067 -5
    endloop
  endfacet
  facet normal -0.891006 0.453991 0
    outer loop
      vertex 6.7862 17.8067 5
      vertex 6.7862 17.8067 -5
      vertex 6.5723 17.3868 5
    endloop
  endfacet
  facet normal -0.891006 0.453991 0
    outer loop
      vertex 6.5723 17.3868 5
      vertex 6.7862 17.8067 -5
      vertex 6.5723 17.3868 -5
    endloop
  endfacet
  facet normal -0.860741 0.509042 0
    outer loop
      vertex 6.5723 17.3868 5
      vertex 6.5723 17.3868 -5
      vertex 6.33246 16.9813 5
    endloop
  endfacet
  facet normal -0.860741 0.509042 0
    outer loop
      vertex 6.33246 16.9813 5
      vertex 6.5723 17.3868 -5
      vertex 6.33246 16.9813 -5
    endloop
  endfacet
  facet normal -0.82708 0.562084 0
    outer loop
      vertex 6.33246 16.9813 5
      vertex 6.33246 16.9813 -5
      vertex 6.06763 16.5916 5
    endloop
  endfacet
  facet normal -0.82708 0.562084 0
    outer loop
      vertex 6.06763 16.5916 5
      vertex 6.33246 16.9813 -5
      vertex 6.06763 16.5916 -5
    endloop
  endfacet
  facet normal -0.790156 0.612906 0
    outer loop
      vertex 6.06763 16.5916 5
      vertex 6.06763 16.5916 -5
      vertex 5.77885 16.2193 5
    endloop
  endfacet
  facet normal -0.790156 0.612906 0
    outer loop
      vertex 5.77885 16.2193 5
      vertex 6.06763 16.5916 -5
      vertex 5.77885 16.2193 -5
    endloop
  endfacet
  facet normal -0.750111 0.661312 0
    outer loop
      vertex 5.77885 16.2193 5
      vertex 5.77885 16.2193 -5
      vertex 5.46726 15.8659 5
    endloop
  endfacet
  facet normal -0.750111 0.661312 0
    outer loop
      vertex 5.46726 15.8659 5
      vertex 5.77885 16.2193 -5
      vertex 5.46726 15.8659 -5
    endloop
  endfacet
  facet normal -0.707107 0.707107 0
    outer loop
      vertex 5.46726 15.8659 5
      vertex 5.46726 15.8659 -5
      vertex 5.1341 15.5327 5
    endloop
  endfacet
  facet normal -0.707107 0.707107 0
    outer loop
      vertex 5.1341 15.5327 5
      vertex 5.46726 15.8659 -5
      vertex 5.1341 15.5327 -5
    endloop
  endfacet
  facet normal -0.661312 0.750111 0
    outer loop
      vertex 5.1341 15.5327 5
      vertex 5.1341 15.5327 -5
      vertex 4.78068 15.2212 5
    endloop
  endfacet
  facet normal -0.661312 0.750111 0
    outer loop
      vertex 4.78068 15.2212 5
      vertex 5.1341 15.5327 -5
      vertex 4.78068 15.2212 -5
    endloop
  endfacet
  facet normal -0.612906 0.790156 0
    outer loop
      vertex 4.78068 15.2212 5
      vertex 4.78068 15.2212 -5
      vertex 4.40839 14.9324 5
    endloop
  endfacet
  facet normal -0.612906 0.790156 0
    outer loop
      vertex 4.40839 14.9324 5
      vertex 4.78068 15.2212 -5
      vertex 4.40839 14.9324 -5
    endloop
  endfacet
  facet normal -0.562084 0.82708 0
    outer loop
      vertex 4.40839 14.9324 5
      vertex 4.40839 14.9324 -5
      vertex 4.0187 14.6675 5
    endloop
  endfacet
  facet normal -0.562084 0.82708 0
    outer loop
      vertex 4.0187 14.6675 5
      vertex 4.40839 14.9324 -5
      vertex 4.0187 14.6675 -5
    endloop
  endfacet
  facet normal -0.509042 0.860741 0
    outer loop
      vertex 4.0187 14.6675 5
      vertex 4.0187 14.6675 -5
      vertex 3.61315 14.4277 5
    endloop
  endfacet
  facet normal -0.509042 0.860741 0
    outer loop
      vertex 3.61315 14.4277 5
      vertex 4.0187 14.6675 -5
      vertex 3.61315 14.4277 -5
    endloop
  endfacet
  facet normal -0.453991 0.891006 0
    outer loop
      vertex 3.61315 14.4277 5
      vertex 3.61315 14.4277 -5
      vertex 3.19334 14.2138 5
    endloop
  endfacet
  facet normal -0.453991 0.891006 0
    outer loop
      vertex 3.19334 14.2138 5
      vertex 3.61315 14.4277 -5
      vertex 3.19334 14.2138 -5
    endloop
  endfacet
  facet normal -0.397148 0.917755 0
    outer loop
      vertex 3.19334 14.2138 5
      vertex 3.19334 14.2138 -5
      vertex 2.76093 14.0267 5
    endloop
  endfacet
  facet normal -0.397148 0.917755 0
    outer loop
      vertex 2.76093 14.0267 5
      vertex 3.19334 14.2138 -5
      vertex 2.76093 14.0267 -5
    endloop
  endfacet
  facet normal -0.338737 0.940881 0
    outer loop
      vertex 2.76093 14.0267 5
      vertex 2.76093 14.0267 -5
      vertex 2.31763 13.8671 5
    endloop
  endfacet
  facet normal -0.338737 0.940881 0
    outer loop
      vertex 2.31763 13.8671 5
      vertex 2.76093 14.0267 -5
      vertex 2.31763 13.8671 -5
    endloop
  endfacet
  facet normal -0.278992 0.960294 0
    outer loop
      vertex 2.31763 13.8671 5
      vertex 2.31763 13.8671 -5
      vertex 1.86517 13.7356 5
    endloop
  endfacet
  facet normal -0.278992 0.960294 0
    outer loop
      vertex 1.86517 13.7356 5
      vertex 2.31763 13.8671 -5
      vertex 1.86517 13.7356 -5
    endloop
  endfacet
  facet normal -0.218142 0.975917 0
    outer loop
      vertex 1.86517 13.7356 5
      vertex 1.86517 13.7356 -5
      vertex 1.40536 13.6328 5
    endloop
  endfacet
  facet normal -0.218142 0.975917 0
    outer loop
      vertex 1.40536 13.6328 5
      vertex 1.86517 13.7356 -5
      vertex 1.40536 13.6328 -5
    endloop
  endfacet
  facet normal -0.156435 0.987688 0
    outer loop
      vertex 1.40536 13.6328 5
      vertex 1.40536 13.6328 -5
      vertex 0.939999 13.5591 5
    endloop
  endfacet
  facet normal -0.156435 0.987688 0
    outer loop
      vertex 0.939999 13.5591 5
      vertex 1.40536 13.6328 -5
      vertex 0.939999 13.5591 -5
    endloop
  endfacet
  facet normal -0.094108 0.995562 0
    outer loop
      vertex 0.939999 13.5591 5
      vertex 0.939999 13.5591 -5
      vertex 0.470929 13.5148 5
    endloop
  endfacet
  facet normal -0.094108 0.995562 0
    outer loop
      vertex 0.470929 13.5148 5
      vertex 0.939999 13.5591 -5
      vertex 0.470929 13.5148 -5
    endloop
  endfacet
  facet normal -0.0314117 0.999507 0
    outer loop
      vertex 0.470929 13.5148 5
      vertex 0.470929 13.5148 -5
      vertex 0 13.5 5
    endloop
  endfacet
  facet normal -0.0314117 0.999507 0
    outer loop
      vertex 0 13.5 5
      vertex 0.470929 13.5148 -5
      vertex 0 13.5 -5
    endloop
  endfacet
  facet normal 0.0314117 0.999507 -0
    outer loop
      vertex 0 13.5 5
      vertex 0 13.5 -5
      vertex -0.470929 13.5148 5
    endloop
  endfacet
  facet normal 0.0314117 0.999507 -0
    outer loop
      vertex -0.470929 13.5148 5
      vertex 0 13.5 -5
      vertex -0.470929 13.5148 -5
    endloop
  endfacet
  facet normal 0.094108 0.995562 -0
    outer loop
      vertex -0.470929 13.5148 5
      vertex -0.470929 13.5148 -5
      vertex -0.939999 13.5591 5
    endloop
  endfacet
  facet normal 0.094108 0.995562 -0
    outer loop
      vertex -0.939999 13.5591 5
      vertex -0.470929 13.5148 -5
      vertex -0.939999 13.5591 -5
    endloop
  endfacet
  facet normal 0.156435 0.987688 -0
    outer loop
      vertex -0.939999 13.5591 5
      vertex -0.939999 13.5591 -5
      vertex -1.40536 13.6328 5
    endloop
  endfacet
  facet normal 0.156435 0.987688 -0
    outer loop
      vertex -1.40536 13.6328 5
      vertex -0.939999 13.5591 -5
      vertex -1.40536 13.6328 -5
    endloop
  endfacet
  facet normal 0.218142 0.975917 -0
    outer loop
      vertex -1.40536 13.6328 5
      vertex -1.40536 13.6328 -5
      vertex -1.86517 13.7356 5
    endloop
  endfacet
  facet normal 0.218142 0.975917 -0
    outer loop
      vertex -1.86517 13.7356 5
      vertex -1.40536 13.6328 -5
      vertex -1.86517 13.7356 -5
    endloop
  endfacet
  facet normal 0.278992 0.960294 -0
    outer loop
      vertex -1.86517 13.7356 5
      vertex -1.86517 13.7356 -5
      vertex -2.31763 13.8671 5
    endloop
  endfacet
  facet normal 0.278992 0.960294 -0
    outer loop
      vertex -2.31763 13.8671 5
      vertex -1.86517 13.7356 -5
      vertex -2.31763 13.8671 -5
    endloop
  endfacet
  facet normal 0.338737 0.940881 -0
    outer loop
      vertex -2.31763 13.8671 5
      vertex -2.31763 13.8671 -5
      vertex -2.76093 14.0267 5
    endloop
  endfacet
  facet normal 0.338737 0.940881 -0
    outer loop
      vertex -2.76093 14.0267 5
      vertex -2.31763 13.8671 -5
      vertex -2.76093 14.0267 -5
    endloop
  endfacet
  facet normal 0.397148 0.917755 -0
    outer loop
      vertex -2.76093 14.0267 5
      vertex -2.76093 14.0267 -5
      vertex -3.19334 14.2138 5
    endloop
  endfacet
  facet normal 0.397148 0.917755 -0
    outer loop
      vertex -3.19334 14.2138 5
      vertex -2.76093 14.0267 -5
      vertex -3.19334 14.2138 -5
    endloop
  endfacet
  facet normal 0.453991 0.891006 -0
    outer loop
      vertex -3.19334 14.2138 5
      vertex -3.19334 14.2138 -5
      vertex -3.61315 14.4277 5
    endloop
  endfacet
  facet normal 0.453991 0.891006 -0
    outer loop
      vertex -3.61315 14.4277 5
      vertex -3.19334 14.2138 -5
      vertex -3.61315 14.4277 -5
    endloop
  endfacet
  facet normal 0.509042 0.860741 -0
    outer loop
      vertex -3.61315 14.4277 5
      vertex -3.61315 14.4277 -5
      vertex -4.0187 14.6675 5
    endloop
  endfacet
  facet normal 0.509042 0.860741 -0
    outer loop
      vertex -4.0187 14.6675 5
      vertex -3.61315 14.4277 -5
      vertex -4.0187 14.6675 -5
    endloop
  endfacet
  facet normal 0.562084 0.82708 -0
    outer loop
      vertex -4.0187 14.6675 5
      vertex -4.0187 14.6675 -5
      vertex -4.40839 14.9324 5
    endloop
  endfacet
  facet normal 0.562084 0.82708 -0
    outer loop
      vertex -4.40839 14.9324 5
      vertex -4.0187 14.6675 -5
      vertex -4.40839 14.9324 -5
    endloop
  endfacet
  facet normal 0.612906 0.790156 -0
    outer loop
      vertex -4.40839 14.9324 5
      vertex -4.40839 14.9324 -5
      vertex -4.78068 15.2212 5
    endloop
  endfacet
  facet normal 0.612906 0.790156 -0
    outer loop
      vertex -4.78068 15.2212 5
      vertex -4.40839 14.9324 -5
      vertex -4.78068 15.2212 -5
    endloop
  endfacet
  facet normal 0.661312 0.750111 -0
    outer loop
      vertex -4.78068 15.2212 5
      vertex -4.78068 15.2212 -5
      vertex -5.1341 15.5327 5
    endloop
  endfacet
  facet normal 0.661312 0.750111 -0
    outer loop
      vertex -5.1341 15.5327 5
      vertex -4.78068 15.2212 -5
      vertex -5.1341 15.5327 -5
    endloop
  endfacet
  facet normal 0.707107 0.707107 -0
    outer loop
      vertex -5.1341 15.5327 5
      vertex -5.1341 15.5327 -5
      vertex -5.46726 15.8659 5
    endloop
  endfacet
  facet normal 0.707107 0.707107 -0
    outer loop
      vertex -5.46726 15.8659 5
      vertex -5.1341 15.5327 -5
      vertex -5.46726 15.8659 -5
    endloop
  endfacet
  facet normal 0.750111 0.661312 0
    outer loop
      vertex -5.77885 16.2193 5
      vertex -5.46726 15.8659 5
      vertex -5.46726 15.8659 -5
    endloop
  endfacet
  facet normal 0.750111 0.661312 0
    outer loop
      vertex -5.77885 16.2193 -5
      vertex -5.77885 16.2193 5
      vertex -5.46726 15.8659 -5
    endloop
  endfacet
  facet normal 0.790156 0.612906 0
    outer loop
      vertex -6.06763 16.5916 5
      vertex -5.77885 16.2193 5
      vertex -5.77885 16.2193 -5
    endloop
  endfacet
  facet normal 0.790156 0.612906 0
    outer loop
      vertex -6.06763 16.5916 -5
      vertex -6.06763 16.5916 5
      vertex -5.77885 16.2193 -5
    endloop
  endfacet
  facet normal 0.82708 0.562084 0
    outer loop
      vertex -6.33246 16.9813 5
      vertex -6.06763 16.5916 5
      vertex -6.06763 16.5916 -5
    endloop
  endfacet
  facet normal 0.82708 0.562084 0
    outer loop
      vertex -6.33246 16.9813 -5
      vertex -6.33246 16.9813 5
      vertex -6.06763 16.5916 -5
    endloop
  endfacet
  facet normal 0.860741 0.509042 0
    outer loop
      vertex -6.5723 17.3868 5
      vertex -6.33246 16.9813 5
      vertex -6.33246 16.9813 -5
    endloop
  endfacet
  facet normal 0.860741 0.509042 0
    outer loop
      vertex -6.5723 17.3868 -5
      vertex -6.5723 17.3868 5
      vertex -6.33246 16.9813 -5
    endloop
  endfacet
  facet normal 0.891006 0.453991 0
    outer loop
      vertex -6.7862 17.8067 5
      vertex -6.5723 17.3868 5
      vertex -6.5723 17.3868 -5
    endloop
  endfacet
  facet normal 0.891006 0.453991 0
    outer loop
      vertex -6.7862 17.8067 -5
      vertex -6.7862 17.8067 5
      vertex -6.5723 17.3868 -5
    endloop
  endfacet
  facet normal 0.917755 0.397148 0
    outer loop
      vertex -6.97332 18.2391 5
      vertex -6.7862 17.8067 5
      vertex -6.7862 17.8067 -5
    endloop
  endfacet
  facet normal 0.917755 0.397148 0
    outer loop
      vertex -6.97332 18.2391 -5
      vertex -6.97332 18.2391 5
      vertex -6.7862 17.8067 -5
    endloop
  endfacet
  facet normal 0.940881 0.338737 0
    outer loop
      vertex -7.13292 18.6824 5
      vertex -6.97332 18.2391 5
      vertex -6.97332 18.2391 -5
    endloop
  endfacet
  facet normal 0.940881 0.338737 0
    outer loop
      vertex -7.13292 18.6824 -5
      vertex -7.13292 18.6824 5
      vertex -6.97332 18.2391 -5
    endloop
  endfacet
  facet normal 0.960294 0.278992 0
    outer loop
      vertex -7.26437 19.1348 5
      vertex -7.13292 18.6824 5
      vertex -7.13292 18.6824 -5
    endloop
  endfacet
  facet normal 0.960294 0.278992 0
    outer loop
      vertex -7.26437 19.1348 -5
      vertex -7.26437 19.1348 5
      vertex -7.13292 18.6824 -5
    endloop
  endfacet
  facet normal 0.975917 0.218142 0
    outer loop
      vertex -7.36715 19.5946 5
      vertex -7.26437 19.1348 5
      vertex -7.26437 19.1348 -5
    endloop
  endfacet
  facet normal 0.975917 0.218142 0
    outer loop
      vertex -7.36715 19.5946 -5
      vertex -7.36715 19.5946 5
      vertex -7.26437 19.1348 -5
    endloop
  endfacet
  facet normal 0.987688 0.156435 0
    outer loop
      vertex -7.44086 20.06 5
      vertex -7.36715 19.5946 5
      vertex -7.36715 19.5946 -5
    endloop
  endfacet
  facet normal 0.987688 0.156435 0
    outer loop
      vertex -7.44086 20.06 -5
      vertex -7.44086 20.06 5
      vertex -7.36715 19.5946 -5
    endloop
  endfacet
  facet normal 0.995562 0.094108 0
    outer loop
      vertex -7.4852 20.5291 5
      vertex -7.44086 20.06 5
      vertex -7.44086 20.06 -5
    endloop
  endfacet
  facet normal 0.995562 0.094108 0
    outer loop
      vertex -7.4852 20.5291 -5
      vertex -7.4852 20.5291 5
      vertex -7.44086 20.06 -5
    endloop
  endfacet
endsolid OpenSCAD_Model
